<?xml version="1.0" encoding="UTF-8" standalone="no"?>
<!-- Created with Inkscape (http://www.inkscape.org/) -->

<svg
   xmlns:dc="http://purl.org/dc/elements/1.1/"
   xmlns:cc="http://creativecommons.org/ns#"
   xmlns:rdf="http://www.w3.org/1999/02/22-rdf-syntax-ns#"
   xmlns:svg="http://www.w3.org/2000/svg"
   xmlns="http://www.w3.org/2000/svg"
   xmlns:sodipodi="http://sodipodi.sourceforge.net/DTD/sodipodi-0.dtd"
   xmlns:inkscape="http://www.inkscape.org/namespaces/inkscape"
   width="744.09448819"
   height="1052.3622047"
   id="svg3019"
   version="1.1"
   inkscape:version="0.48.4 r9939"
   sodipodi:docname="New document 4">
  <defs
     id="defs3021" />
  <sodipodi:namedview
     id="base"
     pagecolor="#ffffff"
     bordercolor="#666666"
     borderopacity="1.0"
     inkscape:pageopacity="0.0"
     inkscape:pageshadow="2"
     inkscape:zoom="0.35"
     inkscape:cx="375"
     inkscape:cy="520"
     inkscape:document-units="px"
     inkscape:current-layer="layer1"
     showgrid="false"
     inkscape:window-width="683"
     inkscape:window-height="705"
     inkscape:window-x="2793"
     inkscape:window-y="218"
     inkscape:window-maximized="0" />
  <metadata
     id="metadata3024">
    <rdf:RDF>
      <cc:Work
         rdf:about="">
        <dc:format>image/svg+xml</dc:format>
        <dc:type
           rdf:resource="http://purl.org/dc/dcmitype/StillImage" />
        <dc:title></dc:title>
      </cc:Work>
    </rdf:RDF>
  </metadata>
  <g
     inkscape:label="Layer 1"
     inkscape:groupmode="layer"
     id="layer1">
    <path
       style="fill:none;stroke:#000000;stroke-width:1px;stroke-linecap:butt;stroke-linejoin:miter;stroke-opacity:1"
       d="m 154.28571,266.6479 0,211.42857 220,0 -131.42857,-62.85714 -62.85714,20 5.71429,-40 37.14285,-14.28572 25.71429,14.28572 -11.42857,-40 -48.57143,17.14285 5.71428,-28.57143 51.42858,-14.28571 -14.28572,-20 -42.85714,28.57143 -14.28572,25.71428 0,-42.85714 22.85715,-40 45.71428,11.42857 51.42857,-14.28571 28.57143,40 -45.71428,-11.42857 -11.42857,17.14285 62.85714,11.42858 2.85714,28.57142 -48.57143,-17.14285 -11.42857,20 57.14286,0 14.28571,28.57143 -65.71428,-20 60,42.85714 -91.42857,-2.85714 120,57.14285 0,-211.42857 z"
       id="path3027"
       inkscape:connector-curvature="0" />
  </g>
</svg>
