<?xml version="1.0" encoding="UTF-8" standalone="no"?>
<!-- Created with Inkscape (http://www.inkscape.org/) -->

<svg
   xmlns:dc="http://purl.org/dc/elements/1.1/"
   xmlns:cc="http://creativecommons.org/ns#"
   xmlns:rdf="http://www.w3.org/1999/02/22-rdf-syntax-ns#"
   xmlns:svg="http://www.w3.org/2000/svg"
   xmlns="http://www.w3.org/2000/svg"
   xmlns:sodipodi="http://sodipodi.sourceforge.net/DTD/sodipodi-0.dtd"
   xmlns:inkscape="http://www.inkscape.org/namespaces/inkscape"
   width="744.09448819"
   height="1052.3622047"
   id="svg3029"
   version="1.1"
   inkscape:version="0.48.4 r9939"
   sodipodi:docname="New document 5">
  <defs
     id="defs3031" />
  <sodipodi:namedview
     id="base"
     pagecolor="#ffffff"
     bordercolor="#666666"
     borderopacity="1.0"
     inkscape:pageopacity="0.0"
     inkscape:pageshadow="2"
     inkscape:zoom="0.35"
     inkscape:cx="375"
     inkscape:cy="520"
     inkscape:document-units="px"
     inkscape:current-layer="layer1"
     showgrid="false"
     inkscape:window-width="868"
     inkscape:window-height="604"
     inkscape:window-x="2394"
     inkscape:window-y="237"
     inkscape:window-maximized="0" />
  <metadata
     id="metadata3034">
    <rdf:RDF>
      <cc:Work
         rdf:about="">
        <dc:format>image/svg+xml</dc:format>
        <dc:type
           rdf:resource="http://purl.org/dc/dcmitype/StillImage" />
        <dc:title></dc:title>
      </cc:Work>
    </rdf:RDF>
  </metadata>
  <g
     inkscape:label="Layer 1"
     inkscape:groupmode="layer"
     id="layer1">
    <path
       style="fill:none;stroke:#000000;stroke-width:1px;stroke-linecap:butt;stroke-linejoin:miter;stroke-opacity:1"
       d="m 62.857143,149.50504 0,320 597.142857,0 0,-60 -128.57143,0 0,57.14286 -125.71428,0 0,-60 -154.28572,0 0,51.42857 -108.57143,0 0,-60 514.28572,0 0,-60 -125.71429,0 0,-60 -137.14286,0 0,108.57143 -137.14285,0 0,-62.85715 -194.285717,0 0,-57.14285 257.142857,0 0,48.57143 74.28571,0 0,-85.71429 197.14286,0 0,60 65.71429,0 0,-108.57143 -457.14286,0 0,42.85714 108.57143,0 0,37.14286 -182.85714,0 0,-111.42857 531.42857,0 0,34.28571 -600.000003,0 z"
       id="path3039"
       inkscape:connector-curvature="0" />
  </g>
</svg>
